<?xml version="1.0" encoding="utf-8"?>
<!-- Generator: Adobe Illustrator 26.0.1, SVG Export Plug-In . SVG Version: 6.00 Build 0)  -->
<svg version="1.1" id="Layer_1" xmlns="http://www.w3.org/2000/svg" xmlns:xlink="http://www.w3.org/1999/xlink" x="0px" y="0px"
	 viewBox="0 0 1920 1080" style="enable-background:new 0 0 1920 1080;" xml:space="preserve">
<style type="text/css">
	.st0{fill:#2045B7;}
	.st1{fill:#221F20;}
	.st2{fill:#1F46BC;}
</style>
<g>
	<path class="st0" d="M61.71,27.38c0,0,10.02-16.66,40.76-12.99c0,0,20.73,3.07,42.84,14.08L61.71,27.38z"/>
	<path class="st1" d="M61.22,30.15c0,0-6.35,5.85-8.43,14.08h36.2c0,0,27.31,1.29,31.77-14.08H61.22z"/>
	<path class="st2" d="M131.03,37.21l42.84-3.48l-51.27-3.57c0,0-1.85,14.11-24.49,15.57l-45.32,0.5c0,0-2.48,2.18-1.29,6.84
		l1.88,1.79v5.75l-2.78,0.5v4.26c0,2.85,2.31,5.16,5.16,5.16h37.98l0.5,1.88H87.4l1.49,3.77h-8.33c0,0,1.88-1.19,1.98-4.07H57.35
		c0,0,0.5,5.75,6.74,6.94h96.1c0,0,8.73-2.18,8.83-13.49c0,0-0.3-10.31-9.42-12.3H110.4c0,0,4.26-2.18,8.63-2.08l54.05-3.27
		l-41.75-3.64l42.54-3.1L131.03,37.21z M158.48,59.51c2.71,0,4.91,3.09,4.91,6.91c0,3.82-2.2,6.91-4.91,6.91s-4.91-3.09-4.91-6.91
		C153.57,62.6,155.77,59.51,158.48,59.51z M113.55,70.52h27.97c0,0-0.07,4.54,2.75,5.65H110.5C110.5,76.17,113.4,74.38,113.55,70.52
		z M109.07,67.24c-0.3,3.67-1.49,4.76-1.49,4.76c-4.21,3.67-7.49-1.44-7.49-1.44l2.43-0.1c0,0-0.4-0.69-0.2-5.8
		c0.2-5.11,2.26-4.81,2.26-4.81C109.76,61.24,109.07,67.24,109.07,67.24z"/>
	<g>
		<path d="M180.12,30.07h3.01l8.44,19.85h-2.99l-3.12-8.11h-7.66l-0.93,2.04h-2.99L180.12,30.07z M178.9,39.38h5.45l-2.74-5.97
			L178.9,39.38z"/>
		<path d="M202.91,41.42v2.42h-11.35V30.27h2.83v11.15H202.91z"/>
		<path d="M205.15,30.27h7.14c2.58,0.04,3.98,1.94,3.98,3.84c0,0.81-0.27,1.67-0.8,2.44c1.28,0.87,1.9,2.21,1.9,3.49
			c0,1.92-1.32,3.8-3.88,3.8h-8.34V30.27z M207.98,35.87h3.67c1.2,0,1.8-0.85,1.8-1.73c0-0.85-0.6-1.73-1.8-1.73h-3.67V35.87z
			 M207.98,41.5h4.85c1.22,0,1.82-0.87,1.82-1.77c0-0.87-0.62-1.77-1.82-1.77h-4.85V41.5z"/>
		<path d="M219.75,30.27h2.83v8.07c0,2.15,1.86,3.22,3.7,3.22c1.84,0,3.69-1.07,3.69-3.22v-8.07h2.83v8.07
			c0,4.02-3.26,6.01-6.52,6.01c-3.26,0-6.54-2-6.54-6.01V30.27z"/>
		<path d="M235.6,30.27h7.82c2.72,0.06,4.17,2.11,4.17,4.17c0,1.63-0.93,3.3-2.79,4h-0.04c0.7,1.07,1.42,2.08,2.21,3.06
			c15.76,19.68,31.13,5.82,31.13,5.82c-3.32,4.17-7.86,6.94-13.35,6.94c-8.11,0-15.03-4.99-19.92-11.1
			c-1.16-1.44-2.23-2.97-3.18-4.56h-3.22v5.24h-2.83V30.27z M238.43,36.18h4.21c1.34,0,2-0.87,2-1.75c0-0.87-0.66-1.75-2-1.75h-4.21
			V36.18z"/>
		<path d="M259.27,30.07l9.23,19.85h-2.99l-3.92-8.11h-5.84l1.11-2.42h3.63l-2.74-5.97L253,43.85h-2.99l6.25-13.77H259.27z"/>
		<path d="M278.57,42.29c15.99,18.33,30.51,5.28,30.51,5.28c-0.72,0.89-1.49,1.75-2.33,2.52c-3.01,2.77-6.96,4.35-11.04,4.35
			c-7.76,0-14.57-4.85-19.38-10.57c-0.04-0.02-0.06-0.06-0.1-0.1c-0.87,0.33-1.82,0.52-2.83,0.52c-3.39,0-7.37-2.37-7.37-7.24
			s3.98-7.24,7.37-7.24c3.39,0,7.37,2.37,7.37,7.24C280.76,39.17,279.93,40.99,278.57,42.29z M274.69,36.8
			c0.66,1.11,1.36,2.17,2.11,3.22c0.64-0.72,1.09-1.71,1.09-2.97c0-2.99-2.42-4.44-4.48-4.44c-2.08,0-4.48,1.46-4.48,4.44
			c0,2.99,2.41,4.44,4.48,4.44c0.33,0,0.68-0.04,1.01-0.12c-0.74-1.03-1.42-2.11-2.06-3.2L274.69,36.8z"/>
	</g>
	<path d="M187.02,77.02c-1.53,0-2.94-0.26-4.23-0.77c-1.29-0.51-2.4-1.23-3.34-2.16c-0.94-0.92-1.66-2.02-2.17-3.3
		c-0.51-1.28-0.77-2.68-0.77-4.2c0-1.52,0.26-2.92,0.78-4.2c0.52-1.28,1.25-2.38,2.2-3.3c0.95-0.92,2.07-1.64,3.38-2.16
		c1.3-0.51,2.74-0.77,4.31-0.77c0.89,0,1.77,0.11,2.64,0.33c0.87,0.22,1.69,0.55,2.46,1c0.77,0.45,1.48,1.01,2.12,1.7l-3.53,4.31
		c-0.26-0.32-0.56-0.62-0.92-0.89c-0.36-0.27-0.77-0.48-1.23-0.64c-0.47-0.16-1-0.24-1.6-0.24c-0.62,0-1.21,0.11-1.76,0.33
		c-0.56,0.22-1.04,0.54-1.45,0.96c-0.41,0.42-0.73,0.93-0.97,1.54c-0.24,0.61-0.36,1.31-0.36,2.11c0,0.72,0.12,1.38,0.36,1.97
		c0.24,0.59,0.57,1.1,1.01,1.51c0.44,0.42,0.97,0.74,1.59,0.97c0.62,0.23,1.31,0.34,2.08,0.34c0.55,0,1.07-0.09,1.56-0.26
		c0.49-0.17,0.94-0.4,1.34-0.67c0.4-0.28,0.75-0.59,1.04-0.93l2.82,4.63c-0.47,0.53-1.1,1.01-1.89,1.43
		c-0.78,0.42-1.65,0.75-2.6,0.99C188.94,76.9,187.99,77.02,187.02,77.02z"/>
	<path d="M206.49,56.73h-4.65l-7.69,20h5.74l1.04-2.97h6.28l1.04,2.97h5.85L206.49,56.73z M202.42,69.56l0.55-1.57
		c0.2-0.59,0.38-1.1,0.53-1.51c0.15-0.42,0.29-0.82,0.41-1.19c0.07-0.22,0.14-0.45,0.2-0.69c0.06,0.24,0.13,0.47,0.19,0.69
		c0.11,0.37,0.24,0.77,0.38,1.19s0.32,0.92,0.52,1.51l0.55,1.57H202.42z"/>
	<path d="M228.23,69.24c0.02-0.01,0.04-0.02,0.06-0.03c1.04-0.58,1.85-1.4,2.44-2.44c0.58-1.05,0.87-2.27,0.87-3.66
		c0-1.24-0.29-2.33-0.87-3.29c-0.58-0.95-1.4-1.71-2.44-2.26c-1.04-0.55-2.22-0.83-3.55-0.83h-8.97v20h5.53v-6.66h0.92l3.59,6.66
		h6.59L228.23,69.24z M221.29,65.79v-4.2h2.41c0.49,0,0.9,0.08,1.22,0.24c0.32,0.16,0.56,0.39,0.71,0.68
		c0.15,0.3,0.23,0.65,0.23,1.07c0,0.46-0.08,0.85-0.23,1.17c-0.15,0.33-0.38,0.58-0.68,0.76c-0.3,0.18-0.68,0.27-1.13,0.27H221.29z"
		/>
	<path class="st2" d="M253.23,68.19c0,1.28-0.23,2.46-0.68,3.55c-0.45,1.08-1.1,2.02-1.93,2.8c-0.83,0.78-1.81,1.39-2.94,1.83
		c-1.13,0.44-2.37,0.66-3.72,0.66c-1.64,0-3.09-0.26-4.36-0.77c-1.27-0.51-2.34-1.24-3.22-2.17c-0.87-0.93-1.54-2.04-1.98-3.32
		c-0.45-1.28-0.67-2.67-0.67-4.17c0-1.52,0.25-2.92,0.75-4.19c0.5-1.27,1.23-2.37,2.17-3.3c0.95-0.93,2.07-1.66,3.38-2.17
		c1.3-0.52,2.76-0.77,4.36-0.77c1.11,0,2.15,0.14,3.11,0.43c0.96,0.29,1.82,0.67,2.6,1.16c0.77,0.49,1.44,1.03,2.01,1.64l-3.5,3.89
		c-0.36-0.36-0.76-0.68-1.17-0.96c-0.42-0.28-0.89-0.5-1.4-0.66c-0.51-0.16-1.09-0.24-1.72-0.24c-0.66,0-1.26,0.13-1.8,0.38
		c-0.55,0.26-1.02,0.61-1.42,1.07c-0.4,0.46-0.71,1.01-0.94,1.64c-0.23,0.64-0.34,1.33-0.34,2.07c0,0.74,0.12,1.43,0.36,2.07
		c0.24,0.64,0.57,1.19,0.98,1.64c0.42,0.46,0.92,0.82,1.51,1.07c0.58,0.26,1.22,0.38,1.91,0.38c0.47,0,0.91-0.08,1.3-0.24
		c0.39-0.16,0.73-0.38,1.01-0.66c0.28-0.27,0.51-0.61,0.67-1c0.1-0.23,0.17-0.47,0.2-0.73h-4.06v-4.34h9.41
		c0.02,0.21,0.04,0.55,0.07,1.03c0.03,0.48,0.05,0.95,0.06,1.42C253.23,67.7,253.23,68.02,253.23,68.19z"/>
	<path class="st2" d="M275.17,62.46c-0.5-1.26-1.21-2.35-2.13-3.27c-0.92-0.93-2-1.64-3.24-2.15c-1.24-0.51-2.61-0.77-4.11-0.77
		c-1.48,0-2.85,0.26-4.1,0.77c-1.25,0.51-2.33,1.23-3.26,2.15c-0.92,0.93-1.63,2.02-2.13,3.27c-0.36,0.92-0.59,1.91-0.69,2.96
		c0.31-0.24,0.7-0.38,1.13-0.38h9.02l-2.63-2.63c-0.89-0.89-0.89-2.34,0-3.24l0.07-0.07c0.89-0.89,2.34-0.89,3.24,0l5.58,5.58
		c1.04,1.04,1.04,2.73,0,3.78l-5.66,5.66c-0.89,0.89-2.34,0.89-3.24,0c-0.9-0.9-0.89-2.37,0.03-3.26l2.15-2.08h-8.56
		c-0.39,0-0.75-0.12-1.05-0.32c0.12,0.8,0.32,1.57,0.61,2.29c0.5,1.27,1.21,2.36,2.13,3.29c0.92,0.93,2.01,1.64,3.26,2.15
		c1.25,0.51,2.62,0.77,4.12,0.77c1.48,0,2.84-0.26,4.08-0.77c1.24-0.51,2.32-1.23,3.24-2.15c0.92-0.93,1.63-2.02,2.13-3.29
		c0.5-1.27,0.75-2.65,0.75-4.17C275.92,65.09,275.67,63.71,275.17,62.46z"/>
</g>
</svg>
